<svg id="contact_us" xmlns="http://www.w3.org/2000/svg" width="24" height="24" viewBox="0 0 24 24">
  <path id="Path_296" data-name="Path 296" d="M0,0H24V24H0Z" fill="none"/>
  <path id="Path_297" data-name="Path 297" d="M15,11V4H4v8.17l.59-.58L5.17,11H15Z" fill="#0b2242" opacity="0.3"/>
  <path id="Path_298" data-name="Path 298" d="M21,6H19v9H6v2a1,1,0,0,0,1,1H18l4,4V7A1,1,0,0,0,21,6Zm-5,7a1,1,0,0,0,1-1V3a1,1,0,0,0-1-1H3A1,1,0,0,0,2,3V17l4-4ZM4.59,11.59,4,12.17V4H15v7H5.17Z" fill="#0b2242"/>
</svg>
