<svg id="discount_code" xmlns="http://www.w3.org/2000/svg" width="24" height="24" viewBox="0 0 24 24">
  <path id="Path_303" data-name="Path 303" d="M0,0H24V24H0Z" fill="none"/>
  <path id="Path_304" data-name="Path 304" d="M18.49,9.89l.26-2.79-2.74-.62L14.58,4.07,12,5.18,9.42,4.07,7.99,6.48,5.25,7.1l.26,2.78L3.66,12l1.85,2.11-.26,2.8,2.74.62,1.43,2.41L12,18.82l2.58,1.11,1.43-2.41,2.74-.62-.26-2.79L20.34,12ZM13,17H11V15h2Zm0-4H11V7h2Z" fill="#0b2242" opacity="0.3"/>
  <path id="Path_305" data-name="Path 305" d="M20.9,5.54l-3.61-.82L15.4,1.54,12,3,8.6,1.54,6.71,4.72,3.1,5.53l.34,3.68L1,12l2.44,2.78L3.1,18.47l3.61.82L8.6,22.47,12,21l3.4,1.46,1.89-3.18,3.61-.82-.34-3.68L23,12,20.56,9.22ZM18.75,16.9l-2.74.62-1.43,2.41L12,18.82,9.42,19.93,7.99,17.52,5.25,16.9l.26-2.8L3.66,12,5.51,9.88,5.25,7.1l2.74-.61L9.42,4.08,12,5.18l2.58-1.11,1.43,2.41,2.74.62-.26,2.79L20.34,12l-1.85,2.11ZM11,15h2v2H11Zm0-8h2v6H11Z" fill="#0b2242"/>
</svg>
