<svg xmlns="http://www.w3.org/2000/svg" width="24" height="24" viewBox="0 0 24 24">
  <g id="document" transform="translate(24 24) rotate(180)">
    <path id="Path_278" data-name="Path 278" d="M0,0H24V24H0Z" fill="none"/>
    <path id="Path_279" data-name="Path 279" d="M13,4H6V20H18V9H13Zm3,14H8V16h8Zm0-6v2H8V12Z" fill="#0b2242" opacity="0.3"/>
    <path id="Path_280" data-name="Path 280" d="M8,16h8v2H8Zm0-4h8v2H8ZM14,2H6A2.006,2.006,0,0,0,4,4V20a2,2,0,0,0,1.99,2H18a2.006,2.006,0,0,0,2-2V8Zm4,18H6V4h7V9h5Z" fill="#0b2242"/>
  </g>
</svg>
