<svg xmlns="http://www.w3.org/2000/svg" viewBox="0 0 110.07 98.57"><defs><style>.cls-1,.cls-3,.cls-4{fill:none;}.cls-2{fill:#fff;}.cls-3,.cls-4{stroke:#1e56a4;stroke-miterlimit:10;}.cls-3{stroke-width:3px;}.cls-4{stroke-width:5px;}</style></defs><g id="Layer_2" data-name="Layer 2"><g id="Layer_1-2" data-name="Layer 1"><g id="Layer_2-2" data-name="Layer 2"><g id="Layer_1_copy" data-name="Layer 1 copy"><rect class="cls-1" width="110.07" height="98.57"/><path class="cls-2" d="M7.14,40.1V34.49c.14-.85.27-1.7.43-2.55C9,24.49,12.32,18.2,18.51,13.66a25.29,25.29,0,0,1,34.42,3.88c.74.82,1.43,1.69,2.18,2.6.36-.46.65-.86,1-1.24C62.36,11.21,70.3,7.48,80.38,9a25,25,0,0,1,15.43,8.54,28.75,28.75,0,0,1,6.79,15.29A31.51,31.51,0,0,1,99,52.7,53.41,53.41,0,0,1,88.24,66.41C82.08,72.17,75.72,77.73,69.4,83.34c-3.38,3-6.84,5.9-10.27,8.85-2.65,2.29-5.5,2.3-8.16,0L48.7,90.26c-7.89-6.89-15.84-13.71-23.64-20.69A68.57,68.57,0,0,1,12.73,55.46,33.66,33.66,0,0,1,8.09,44.93C7.72,43.33,7.45,41.71,7.14,40.1Z"/><path class="cls-3" d="M7.14,40.1V34.49c.14-.85.27-1.7.43-2.55C9,24.49,12.32,18.2,18.51,13.66a25.29,25.29,0,0,1,34.42,3.88c.74.82,1.43,1.69,2.18,2.6.36-.46.65-.86,1-1.24C62.36,11.21,70.3,7.48,80.38,9a25,25,0,0,1,15.43,8.54,28.75,28.75,0,0,1,6.79,15.29A31.51,31.51,0,0,1,99,52.7,53.41,53.41,0,0,1,88.24,66.41C82.08,72.17,75.72,77.73,69.4,83.34c-3.38,3-6.84,5.9-10.27,8.85-2.65,2.29-5.5,2.3-8.16,0L48.7,90.26c-7.89-6.89-15.84-13.71-23.64-20.69A68.57,68.57,0,0,1,12.73,55.46,33.66,33.66,0,0,1,8.09,44.93C7.72,43.33,7.45,41.71,7.14,40.1Z"/><path class="cls-4" d="M7.14,40.1V34.49c.14-.85.27-1.7.43-2.55C9,24.49,12.32,18.2,18.51,13.66a25.29,25.29,0,0,1,34.42,3.88c.74.82,1.43,1.69,2.18,2.6.36-.46.65-.86,1-1.24C62.36,11.21,70.3,7.48,80.38,9a25,25,0,0,1,15.43,8.54,28.75,28.75,0,0,1,6.79,15.29A31.51,31.51,0,0,1,99,52.7,53.41,53.41,0,0,1,88.24,66.41C82.08,72.17,75.72,77.73,69.4,83.34c-3.38,3-6.84,5.9-10.27,8.85-2.65,2.29-5.5,2.3-8.16,0L48.7,90.26c-7.89-6.89-15.84-13.71-23.64-20.69A68.57,68.57,0,0,1,12.73,55.46,33.66,33.66,0,0,1,8.09,44.93C7.72,43.33,7.45,41.71,7.14,40.1Z"/></g></g></g></g></svg>