<svg id="orders" xmlns="http://www.w3.org/2000/svg" width="24" height="24" viewBox="0 0 24 24">
  <path id="Path_221" data-name="Path 221" d="M19,19a1,1,0,0,1-2,0V16H8V5H19Z" fill="#0b2242" opacity="0.3"/>
  <path id="Path_222" data-name="Path 222" d="M0,0H24V24H0Z" fill="none"/>
  <g id="Group_52" data-name="Group 52">
    <path id="Path_223" data-name="Path 223" d="M19.5,3.5,18,2,16.5,3.5,15,2,13.5,3.5,12,2,10.5,3.5,9,2,7.5,3.5,6,2V16H3v3a3,3,0,0,0,3,3H18a3,3,0,0,0,3-3V2ZM19,19a1,1,0,0,1-2,0V16H8V5H19Z" fill="#0b2242"/>
    <rect id="Rectangle_33" data-name="Rectangle 33" width="6" height="2" transform="translate(9 7)" fill="#0b2242"/>
    <rect id="Rectangle_34" data-name="Rectangle 34" width="2" height="2" transform="translate(16 7)" fill="#0b2242"/>
    <rect id="Rectangle_35" data-name="Rectangle 35" width="6" height="2" transform="translate(9 10)" fill="#0b2242"/>
    <rect id="Rectangle_36" data-name="Rectangle 36" width="2" height="2" transform="translate(16 10)" fill="#0b2242"/>
  </g>
</svg>
