<svg id="phone" xmlns="http://www.w3.org/2000/svg" width="24" height="24" viewBox="0 0 24 24">
  <path id="Path_196" data-name="Path 196" d="M0,0H24V24H0Z" fill="none"/>
  <path id="Path_197" data-name="Path 197" d="M19,17.47a14.289,14.289,0,0,1-2.6-.45l-1.19,1.19a14.476,14.476,0,0,0,3.8.75V17.47ZM5.03,5a15.426,15.426,0,0,0,.75,3.8l1.2-1.2A13.205,13.205,0,0,1,6.54,5H5.03Z" fill="#0b2242" opacity="0.3"/>
  <path id="Path_198" data-name="Path 198" d="M9.07,7.57A11.36,11.36,0,0,1,8.5,4a1,1,0,0,0-1-1H4A1,1,0,0,0,3,4,17,17,0,0,0,20,21a1,1,0,0,0,1-1V16.51a1,1,0,0,0-1-1,11.407,11.407,0,0,1-3.57-.57.839.839,0,0,0-.31-.05,1.024,1.024,0,0,0-.71.29l-2.2,2.2a15.149,15.149,0,0,1-6.59-6.59l2.2-2.2a1,1,0,0,0,.25-1.02Zm7.33,9.45a12.753,12.753,0,0,0,2.6.45v1.49a15.426,15.426,0,0,1-3.8-.75ZM5.79,8.8A14.989,14.989,0,0,1,5.03,5h1.5a13,13,0,0,0,.46,2.59Z" fill="#0b2242"/>
</svg>
