<svg id="phone" xmlns="http://www.w3.org/2000/svg" width="32" height="32" viewBox="0 0 32 32">
  <path id="Path_196" data-name="Path 196" d="M0,0H32V32H0Z" fill="none"/>
  <path id="Path_197" data-name="Path 197" d="M5.03,5a32.091,32.091,0,0,0,1.559,7.9l2.494-2.5A27.471,27.471,0,0,1,8.168,5H5.03Z" fill="#0d55b1" opacity="0.3"/>
  <path id="Path_307" data-name="Path 307" d="M28.72,24.821a28.957,28.957,0,0,1-5.272-.913l-2.413,2.414a29.336,29.336,0,0,0,7.7,1.521V24.821Z" transform="translate(-1.73 -0.884)" fill="#0d55b1" opacity="0.3"/>
  <path id="Path_198" data-name="Path 198" d="M11.768,9.6a16.409,16.409,0,0,1-.823-5.157A1.449,1.449,0,0,0,9.5,3H4.444A1.449,1.449,0,0,0,3,4.444,24.553,24.553,0,0,0,27.556,29,1.449,1.449,0,0,0,29,27.556V22.514a1.449,1.449,0,0,0-1.444-1.444,16.477,16.477,0,0,1-5.157-.823,1.213,1.213,0,0,0-.448-.072,1.48,1.48,0,0,0-1.026.419l-3.178,3.178a21.881,21.881,0,0,1-9.519-9.519l3.178-3.178A1.45,1.45,0,0,0,11.768,9.6Zm10.588,13.65a18.42,18.42,0,0,0,3.756.65v2.152a22.283,22.283,0,0,1-5.489-1.083ZM7.03,11.378a21.65,21.65,0,0,1-1.1-5.489H8.1A18.778,18.778,0,0,0,8.763,9.63Z" transform="translate(0 0)" fill="#0d55b1"/>
</svg>
