<svg id="place" xmlns="http://www.w3.org/2000/svg" width="24" height="24" viewBox="0 0 24 24">
  <path id="Path_199" data-name="Path 199" d="M18.5,10.2c0,2.57-2.1,5.79-6.16,9.51l-.34.3-.34-.31C7.6,15.99,5.5,12.77,5.5,10.2a6.5,6.5,0,1,1,13,0Z" fill="#0b2242" opacity="0.3"/>
  <path id="Path_200" data-name="Path 200" d="M12,2a7.955,7.955,0,0,1,8,8.2q0,4.98-8,11.8Q4.005,15.175,4,10.2A7.955,7.955,0,0,1,12,2Zm6,8.2a6,6,0,1,0-12,0c0,2.34,1.95,5.44,6,9.14C16.05,15.64,18,12.54,18,10.2ZM12,12a2,2,0,1,1,2-2A2.006,2.006,0,0,1,12,12Z" fill="#0b2242"/>
  <path id="Path_201" data-name="Path 201" d="M0,0H24V24H0Z" fill="none"/>
</svg>
