<svg id="services" xmlns="http://www.w3.org/2000/svg" width="24" height="24" viewBox="0 0 24 24">
  <path id="Path_231" data-name="Path 231" d="M0,0H24V24H0Z" fill="none"/>
  <path id="Path_232" data-name="Path 232" d="M4,8H20V19H4Z" fill="#0b2242" opacity="0.3"/>
  <path id="Path_233" data-name="Path 233" d="M20,6H16V4a1.993,1.993,0,0,0-2-2H10A1.993,1.993,0,0,0,8,4V6H4A1.985,1.985,0,0,0,2.01,8L2,19a1.993,1.993,0,0,0,2,2H20a1.993,1.993,0,0,0,2-2V8A1.993,1.993,0,0,0,20,6ZM10,4h4V6H10ZM20,19H4V8H20Z" fill="#0b2242"/>
</svg>
