<svg id="social_yoututbe" xmlns="http://www.w3.org/2000/svg" width="24" height="24" viewBox="0 0 24 24">
  <rect id="container" width="24" height="24" fill="#0b2242" opacity="0"/>
  <path id="Icon_awesome-youtube" data-name="Icon awesome-youtube" d="M20.632,6.7a2.513,2.513,0,0,0-1.768-1.78C17.3,4.5,11.05,4.5,11.05,4.5s-6.254,0-7.814.421A2.513,2.513,0,0,0,1.468,6.7a26.362,26.362,0,0,0-.418,4.845,26.362,26.362,0,0,0,.418,4.845,2.476,2.476,0,0,0,1.768,1.751c1.56.421,7.814.421,7.814.421s6.254,0,7.814-.421a2.476,2.476,0,0,0,1.768-1.751,26.362,26.362,0,0,0,.418-4.845A26.362,26.362,0,0,0,20.632,6.7ZM9,14.519V8.572l5.227,2.974L9,14.519Z" transform="translate(0.95 0.5)" fill="#0b2242"/>
</svg>
