<svg id="social_google" xmlns="http://www.w3.org/2000/svg" width="24" height="24" viewBox="0 0 24 24">
  <rect id="container" width="24" height="24" fill="#0b2242" opacity="0"/>
  <path id="Icon_awesome-google" data-name="Icon awesome-google" d="M18,9.924c0,5.219-3.574,8.934-8.852,8.934a9.148,9.148,0,0,1,0-18.3,8.8,8.8,0,0,1,6.134,2.394L12.792,5.35C9.535,2.208,3.478,4.568,3.478,9.71a5.73,5.73,0,0,0,5.669,5.776,4.946,4.946,0,0,0,5.193-3.943H9.148V8.4h8.709A8.019,8.019,0,0,1,18,9.924Z" transform="translate(3 2.437)" fill="#0b2242"/>
</svg>
