<svg id="solutions" xmlns="http://www.w3.org/2000/svg" width="24" height="24" viewBox="0 0 24 24">
  <g id="Group_93" data-name="Group 93">
    <rect id="Rectangle_42" data-name="Rectangle 42" width="24" height="24" fill="none"/>
  </g>
  <g id="Group_95" data-name="Group 95">
    <g id="Group_94" data-name="Group 94">
      <path id="Path_284" data-name="Path 284" d="M14.69,2.21,4.33,11.49a1,1,0,0,0,.58,1.73L13,14,8.15,20.76a.788.788,0,0,0,.08,1.01h0a.77.77,0,0,0,1.08.02l10.36-9.28a1,1,0,0,0-.58-1.73L11,10l4.85-6.76a.788.788,0,0,0-.08-1.01h0A.77.77,0,0,0,14.69,2.21Z" fill="#0b2242"/>
    </g>
  </g>
</svg>
