<svg id="star" xmlns="http://www.w3.org/2000/svg" width="24" height="24" viewBox="0 0 24 24">
  <g id="Group_53" data-name="Group 53">
    <path id="Path_224" data-name="Path 224" d="M0,0H24V24H0Z" fill="none"/>
    <path id="Path_225" data-name="Path 225" d="M0,0H24V24H0Z" fill="none"/>
  </g>
  <g id="Group_55" data-name="Group 55" transform="translate(2 2)">
    <g id="Group_54" data-name="Group 54">
      <path id="Path_226" data-name="Path 226" d="M12,15.4,8.24,17.67l1-4.28L5.92,10.51l4.38-.38L12,6.1l1.71,4.04,4.38.38L14.77,13.4l1,4.28Z" transform="translate(-2 -2)" fill="#0b2242" opacity="0.3"/>
      <path id="Path_227" data-name="Path 227" d="M22,9.24l-7.19-.62L12,2,9.19,8.63,2,9.24l5.46,4.73L5.82,21,12,17.27,18.18,21l-1.63-7.03ZM12,15.4,8.24,17.67l1-4.28L5.92,10.51l4.38-.38L12,6.1l1.71,4.04,4.38.38L14.77,13.4l1,4.28Z" transform="translate(-2 -2)" fill="#0b2242"/>
    </g>
  </g>
</svg>
