<svg id="storefront" xmlns="http://www.w3.org/2000/svg" width="24" height="24" viewBox="0 0 24 24">
  <g id="Group_90" data-name="Group 90">
    <rect id="Rectangle_41" data-name="Rectangle 41" width="24" height="24" fill="none"/>
  </g>
  <g id="Group_92" data-name="Group 92">
    <g id="Group_91" data-name="Group 91">
      <path id="Path_273" data-name="Path 273" d="M6.44,9.86,7.02,5H5.05L4.04,9.36a1.356,1.356,0,0,0,.25,1.17,1.173,1.173,0,0,0,.94.47A1.257,1.257,0,0,0,6.44,9.86Z" fill="#0b2242" opacity="0.3"/>
      <path id="Path_274" data-name="Path 274" d="M9.71,11A1.285,1.285,0,0,0,11,9.69V5H9.04L8.49,9.52a1.344,1.344,0,0,0,.33,1.07A1.187,1.187,0,0,0,9.71,11Z" fill="#0b2242" opacity="0.3"/>
      <path id="Path_275" data-name="Path 275" d="M14.22,11a1.243,1.243,0,0,0,.96-.41,1.421,1.421,0,0,0,.33-1.07L14.96,5H13V9.69A1.272,1.272,0,0,0,14.22,11Z" fill="#0b2242" opacity="0.3"/>
      <path id="Path_276" data-name="Path 276" d="M18.91,4.99,16.98,5l.58,4.86A1.257,1.257,0,0,0,18.77,11a1.151,1.151,0,0,0,.93-.47,1.363,1.363,0,0,0,.25-1.17Z" fill="#0b2242" opacity="0.3"/>
      <path id="Path_277" data-name="Path 277" d="M21.9,8.89,20.85,4.52A1.964,1.964,0,0,0,18.94,3H5.05a1.964,1.964,0,0,0-1.9,1.52L2.1,8.89a3.375,3.375,0,0,0,.62,2.88,3.834,3.834,0,0,0,.28.29V19a2.006,2.006,0,0,0,2,2H19a2.006,2.006,0,0,0,2-2V12.06a3.7,3.7,0,0,0,.28-.28A3.364,3.364,0,0,0,21.9,8.89ZM13,5h1.96l.54,4.52a1.344,1.344,0,0,1-.33,1.07,1.193,1.193,0,0,1-.95.41A1.272,1.272,0,0,1,13,9.69ZM8.49,9.52,9.04,5H11V9.69A1.285,1.285,0,0,1,9.71,11a1.2,1.2,0,0,1-.89-.41A1.421,1.421,0,0,1,8.49,9.52Zm-4.2,1.01a1.363,1.363,0,0,1-.25-1.17L5.05,5H7.02L6.44,9.86A1.257,1.257,0,0,1,5.23,11,1.173,1.173,0,0,1,4.29,10.53ZM19,19H5V12.97a1.81,1.81,0,0,0,.23.03,3.129,3.129,0,0,0,2.24-.95A3.216,3.216,0,0,0,9.78,13a3.17,3.17,0,0,0,2.23-.93A3.278,3.278,0,0,0,14.3,13a3.175,3.175,0,0,0,2.24-.95,3.129,3.129,0,0,0,2.24.95,1.81,1.81,0,0,0,.23-.03V19Zm.71-8.47a1.173,1.173,0,0,1-.94.47,1.25,1.25,0,0,1-1.21-1.14L16.98,5l1.93-.01,1.05,4.37A1.349,1.349,0,0,1,19.71,10.53Z" fill="#0b2242"/>
    </g>
  </g>
</svg>
