<svg id="support" xmlns="http://www.w3.org/2000/svg" width="24" height="24" viewBox="0 0 24 24">
  <path id="Path_247" data-name="Path 247" d="M0,0H24V24H0Z" fill="none"/>
  <path id="Path_248" data-name="Path 248" d="M12,4a8,8,0,1,0,8,8A8.011,8.011,0,0,0,12,4Zm1,14H11V16h2Zm0-3H11c0-3.25,3-3,3-5a2,2,0,0,0-4,0H8a4,4,0,0,1,8,0C16,12.5,13,12.75,13,15Z" fill="#0b2242" opacity="0.3"/>
  <path id="Path_249" data-name="Path 249" d="M11,16h2v2H11ZM12,2A10,10,0,1,0,22,12,10,10,0,0,0,12,2Zm0,18a8,8,0,1,1,8-8A8.011,8.011,0,0,1,12,20ZM12,6a4,4,0,0,0-4,4h2a2,2,0,0,1,4,0c0,2-3,1.75-3,5h2c0-2.25,3-2.5,3-5A4,4,0,0,0,12,6Z" fill="#0b2242"/>
</svg>
