<svg id="terms" xmlns="http://www.w3.org/2000/svg" width="24" height="24" viewBox="0 0 24 24">
  <g id="Group_112" data-name="Group 112">
    <rect id="Rectangle_48" data-name="Rectangle 48" width="24" height="24" fill="none"/>
  </g>
  <g id="Group_114" data-name="Group 114">
    <g id="Group_113" data-name="Group 113">
      <path id="Path_299" data-name="Path 299" d="M12.06,10.02,5,17.08V18h.92l7.06-7.06Z" fill="#0b2242" opacity="0.3"/>
      <path id="Path_300" data-name="Path 300" d="M15,16l-4,4H21V16Z" fill="#0b2242"/>
      <path id="Path_301" data-name="Path 301" d="M12.06,7.19,3,16.25V20H6.75l9.06-9.06ZM5.92,18H5v-.92l7.06-7.06.92.92Z" fill="#0b2242"/>
      <path id="Path_302" data-name="Path 302" d="M18.71,8.04a1,1,0,0,0,0-1.41L16.37,4.29A.982.982,0,0,0,15.66,4a1,1,0,0,0-.7.29L13.13,6.12l3.75,3.75Z" fill="#0b2242"/>
    </g>
  </g>
</svg>
