<svg id="training" xmlns="http://www.w3.org/2000/svg" width="24" height="24" viewBox="0 0 24 24">
  <g id="Group_96" data-name="Group 96">
    <rect id="Rectangle_43" data-name="Rectangle 43" width="24" height="24" fill="none"/>
  </g>
  <g id="Group_98" data-name="Group 98">
    <g id="Group_97" data-name="Group 97">
      <path id="Path_288" data-name="Path 288" d="M14,13.5h4V12H14Zm0,3h4V15H14ZM20,7H15V4a2.006,2.006,0,0,0-2-2H11A2.006,2.006,0,0,0,9,4V7H4A2.006,2.006,0,0,0,2,9V20a2.006,2.006,0,0,0,2,2H20a2.006,2.006,0,0,0,2-2V9A2.006,2.006,0,0,0,20,7ZM11,4h2V9H11Zm9,16H4V9H9a2.006,2.006,0,0,0,2,2h2a2.006,2.006,0,0,0,2-2h5ZM9,15a1.5,1.5,0,1,0-1.5-1.5A1.5,1.5,0,0,0,9,15Zm2.08,1.18a5.246,5.246,0,0,0-4.16,0A1.506,1.506,0,0,0,6,17.57V18h6v-.43A1.506,1.506,0,0,0,11.08,16.18Z" fill="#0b2242"/>
      <path id="Path_289" data-name="Path 289" d="M13,11H11A2.006,2.006,0,0,1,9,9H4V20H20V9H15A2.006,2.006,0,0,1,13,11ZM9,12a1.5,1.5,0,1,1-1.5,1.5A1.5,1.5,0,0,1,9,12Zm3,6H6v-.43a1.516,1.516,0,0,1,.92-1.39,5.246,5.246,0,0,1,4.16,0A1.522,1.522,0,0,1,12,17.57Zm6-1.5H14V15h4Zm0-3H14V12h4Z" fill="#0b2242" opacity="0.3"/>
    </g>
  </g>
</svg>
